<svg id="svg" version="1.1" xmlns="http://www.w3.org/2000/svg" xmlns:xlink="http://www.w3.org/1999/xlink" width="400" height="134.99584372402327" viewBox="0, 0, 400,134.99584372402327"><g id="svgg"><path id="path0" d="" stroke="none" fill="#040404" fill-rule="evenodd"></path><path id="path1" d="M2.052 0.572 C 1.454 0.851,1.044 1.193,0.719 1.684 L 0.250 2.392 0.250 55.597 L 0.250 108.802 0.766 109.443 C 1.050 109.795,1.575 110.251,1.933 110.456 L 2.583 110.828 42.947 110.831 C 71.068 110.833,83.454 110.780,83.781 110.656 C 84.448 110.404,85.158 109.693,85.517 108.917 C 85.956 107.969,86.011 59.248,85.574 58.203 C 84.737 56.198,84.366 56.092,77.948 56.031 L 72.480 55.979 72.615 44.198 C 72.689 37.718,72.750 28.992,72.750 24.807 L 72.750 17.197 72.237 16.564 C 71.955 16.215,71.399 15.758,71.002 15.548 L 70.281 15.167 52.807 15.167 L 35.333 15.167 35.333 9.324 C 35.333 2.611,35.289 2.280,34.239 1.230 C 33.141 0.132,33.717 0.168,17.583 0.169 L 2.917 0.170 2.052 0.572 M92.719 0.571 C 92.122 0.850,91.710 1.194,91.386 1.684 L 90.917 2.392 90.917 55.583 L 90.917 108.774 91.314 109.354 C 91.533 109.673,91.983 110.118,92.314 110.342 L 92.917 110.750 131.046 110.793 C 173.459 110.840,169.732 110.933,170.784 109.806 C 171.722 108.800,171.667 110.711,171.666 79.047 C 171.665 47.067,171.732 49.001,170.578 47.890 C 169.422 46.776,169.991 46.807,151.833 46.865 L 135.583 46.917 134.806 47.374 C 134.379 47.625,133.854 48.112,133.640 48.457 L 133.250 49.083 133.167 61.750 L 133.083 74.417 130.250 74.417 L 127.417 74.417 127.333 38.417 L 127.250 2.417 126.860 1.790 C 126.646 1.446,126.121 0.958,125.694 0.707 L 124.917 0.250 109.250 0.208 L 93.583 0.166 92.719 0.571 M135.127 0.333 C 134.212 0.608,133.488 1.201,133.077 2.012 L 132.667 2.822 132.670 10.536 C 132.675 19.667,132.688 19.733,134.705 20.575 C 135.741 21.008,168.805 20.954,169.750 20.518 C 170.557 20.146,171.065 19.618,171.409 18.795 C 171.831 17.784,171.784 3.192,171.356 2.249 C 170.974 1.408,170.032 0.571,169.213 0.343 C 168.452 0.132,135.827 0.122,135.127 0.333 M176.559 0.585 C 176.022 0.853,175.527 1.267,175.227 1.700 L 174.750 2.388 174.701 55.152 C 174.650 110.879,174.620 108.689,175.442 109.666 C 176.492 110.914,175.266 110.834,193.118 110.830 C 210.919 110.826,209.858 110.894,210.875 109.685 C 211.687 108.721,211.665 109.676,211.666 75.041 L 211.667 42.165 229.542 42.208 L 247.417 42.250 247.500 57.250 C 247.589 73.242,247.546 72.512,248.444 73.366 C 249.510 74.380,248.674 74.333,265.917 74.333 C 284.115 74.333,282.999 74.449,284.016 72.465 C 284.390 71.735,284.527 15.368,284.156 14.386 C 283.965 13.878,283.120 12.925,282.583 12.611 C 282.333 12.465,272.932 12.396,244.833 12.333 L 207.417 12.250 207.333 7.417 C 207.237 1.852,207.169 1.574,205.668 0.692 L 204.917 0.250 191.165 0.205 L 177.414 0.159 176.559 0.585 M289.583 0.417 C 287.342 1.211,287.335 1.251,287.335 14.417 C 287.335 26.752,287.314 26.489,288.397 27.572 C 289.531 28.707,288.872 28.667,306.490 28.667 L 322.333 28.667 322.333 44.447 C 322.333 62.371,322.238 61.158,323.716 62.136 L 324.392 62.583 339.833 62.583 L 355.274 62.583 355.950 62.136 C 357.428 61.158,357.333 62.371,357.333 44.447 L 357.333 28.667 376.970 28.667 C 398.645 28.667,397.742 28.710,398.788 27.630 C 399.874 26.507,399.833 27.024,399.833 14.282 L 399.833 2.719 399.445 1.985 C 399.191 1.502,398.780 1.078,398.250 0.750 L 397.443 0.250 343.846 0.215 C 297.941 0.185,290.154 0.214,289.583 0.417 M28.403 6.934 C 28.637 7.024,28.667 7.732,28.667 13.191 C 28.667 19.919,28.678 20.002,29.694 20.950 C 30.682 21.871,29.868 21.833,48.687 21.833 L 66.051 21.833 65.942 33.958 C 65.881 40.627,65.783 48.315,65.724 51.042 L 65.617 56.000 52.382 56.000 C 37.681 56.000,38.044 55.975,36.910 57.068 C 35.166 58.748,35.726 61.667,37.956 62.515 C 38.177 62.599,47.213 62.668,58.757 62.673 L 79.167 62.682 79.167 83.425 L 79.167 104.167 43.042 104.125 L 6.917 104.083 6.871 55.833 C 6.846 29.296,6.866 7.415,6.916 7.208 L 7.006 6.833 17.573 6.833 C 23.384 6.833,28.258 6.879,28.403 6.934 M120.667 42.833 C 120.760 82.874,120.639 79.189,121.895 80.292 C 122.804 81.090,123.549 81.167,130.300 81.163 C 137.769 81.158,138.296 81.062,139.348 79.527 L 139.750 78.941 139.833 66.346 L 139.917 53.750 152.458 53.707 L 165.000 53.665 165.000 78.916 L 165.000 104.167 131.250 104.167 L 97.500 104.167 97.500 55.611 C 97.500 28.906,97.551 7.005,97.612 6.943 C 97.674 6.882,102.868 6.850,109.154 6.874 L 120.583 6.917 120.667 42.833 M164.736 6.934 C 164.965 7.022,165.000 7.504,165.000 10.602 L 165.000 14.169 152.208 14.126 L 139.417 14.083 139.369 10.833 C 139.343 9.046,139.364 7.415,139.414 7.208 L 139.506 6.833 151.990 6.833 C 158.855 6.833,164.591 6.879,164.736 6.934 M200.530 11.625 C 200.590 17.007,200.677 17.405,201.980 18.283 C 203.060 19.011,202.382 18.998,240.708 18.999 L 277.667 19.000 277.667 43.333 L 277.667 67.667 265.921 67.667 L 254.175 67.667 254.129 52.792 C 254.077 35.912,254.184 37.147,252.679 36.083 L 251.971 35.583 229.513 35.583 L 207.055 35.583 206.390 36.044 C 206.025 36.297,205.562 36.795,205.363 37.150 L 205.000 37.795 205.000 70.981 L 205.000 104.167 193.167 104.167 L 181.333 104.167 181.333 55.611 C 181.333 28.906,181.383 7.006,181.444 6.944 C 181.506 6.883,185.813 6.833,191.016 6.833 L 200.477 6.833 200.530 11.625 M392.967 7.033 C 393.178 7.245,393.272 21.198,393.066 21.736 C 392.974 21.975,391.056 22.000,373.059 22.000 C 350.712 22.000,352.416 21.905,351.449 23.207 C 350.655 24.277,350.667 24.016,350.667 40.442 L 350.667 56.000 339.833 56.000 L 329.000 56.000 329.000 40.285 L 329.000 24.571 328.625 23.837 C 328.419 23.433,327.962 22.873,327.610 22.593 L 326.969 22.083 310.526 22.000 L 294.083 21.917 294.040 14.511 C 294.006 8.697,294.042 7.077,294.207 6.972 C 294.573 6.739,392.734 6.800,392.967 7.033 M134.583 22.277 C 132.646 23.298,132.675 23.139,132.670 32.926 L 132.667 41.268 133.099 42.136 C 133.421 42.781,133.732 43.122,134.308 43.461 L 135.083 43.917 151.738 43.961 C 170.450 44.012,169.622 44.060,170.718 42.846 C 171.650 41.815,171.665 41.660,171.666 32.786 C 171.667 23.240,171.674 23.279,169.798 22.317 C 168.922 21.868,135.432 21.830,134.583 22.277 M14.500 28.430 C 13.798 28.737,13.070 29.403,12.693 30.083 C 12.340 30.721,12.168 48.766,12.501 50.294 C 12.724 51.321,13.273 52.038,14.229 52.549 L 14.917 52.917 25.667 52.917 L 36.417 52.917 37.125 52.538 C 37.514 52.330,38.039 51.848,38.291 51.467 L 38.750 50.775 38.795 40.762 L 38.840 30.750 38.462 30.002 C 38.239 29.563,37.785 29.047,37.361 28.752 L 36.638 28.250 25.861 28.213 C 16.505 28.181,15.006 28.210,14.500 28.430 M165.000 32.918 L 165.000 37.169 152.208 37.126 L 139.417 37.083 139.372 33.087 C 139.347 30.888,139.364 28.995,139.408 28.878 C 139.473 28.710,142.088 28.667,152.245 28.667 L 165.000 28.667 165.000 32.918 M32.167 40.500 L 32.167 46.167 25.583 46.167 L 19.000 46.167 19.000 40.764 C 19.000 37.792,19.046 35.242,19.101 35.097 C 19.191 34.863,19.927 34.833,25.684 34.833 L 32.167 34.833 32.167 40.500 M14.044 67.260 C 13.622 67.512,13.152 67.998,12.877 68.466 L 12.417 69.250 12.417 79.833 C 12.417 92.194,12.376 91.929,14.415 92.856 C 15.365 93.287,40.105 93.336,41.128 92.909 C 43.248 92.023,43.181 92.465,43.129 79.777 L 43.083 68.888 42.623 68.223 C 42.369 67.858,41.872 67.396,41.517 67.196 L 40.871 66.833 27.811 66.835 L 14.750 66.836 14.044 67.260 M324.893 67.323 C 324.075 67.522,323.219 68.126,322.800 68.800 L 322.417 69.417 322.365 77.167 C 322.304 86.332,322.393 86.818,324.284 87.608 C 324.981 87.899,354.516 87.945,355.281 87.656 C 357.269 86.905,357.333 86.589,357.333 77.533 L 357.333 69.719 356.945 68.985 C 356.691 68.502,356.280 68.078,355.750 67.750 L 354.943 67.250 340.180 67.223 C 332.060 67.208,325.181 67.254,324.893 67.323 M36.460 79.958 L 36.417 86.417 28.083 86.463 C 23.500 86.488,19.581 86.468,19.375 86.418 L 19.000 86.327 19.000 80.025 C 19.000 76.558,19.050 73.672,19.111 73.611 C 19.172 73.550,23.111 73.500,27.863 73.500 L 36.504 73.500 36.460 79.958 M350.667 77.500 L 350.667 81.167 339.833 81.167 L 329.000 81.167 329.000 77.500 L 329.000 73.833 339.833 73.833 L 350.667 73.833 350.667 77.500 M249.688 78.250 C 248.836 78.515,248.053 79.196,247.729 79.953 C 247.541 80.394,247.500 82.930,247.500 94.212 L 247.500 107.935 247.981 108.693 C 248.301 109.198,248.710 109.572,249.200 109.809 L 249.939 110.167 265.893 110.167 C 283.652 110.167,282.408 110.245,283.531 109.057 C 284.345 108.196,284.333 108.412,284.333 94.064 C 284.333 79.196,284.388 80.050,283.363 78.954 C 282.456 77.985,282.708 77.999,265.845 78.011 C 253.306 78.020,250.280 78.065,249.688 78.250 M277.667 94.083 L 277.667 103.500 265.917 103.500 L 254.167 103.500 254.167 94.083 L 254.167 84.667 265.917 84.667 L 277.667 84.667 277.667 94.083 M324.250 92.429 C 322.396 93.393,322.429 93.221,322.333 102.250 L 322.250 110.083 305.917 110.167 C 287.758 110.259,289.006 110.175,288.115 111.375 C 287.342 112.416,287.333 112.543,287.333 122.417 C 287.333 128.976,287.390 131.953,287.523 132.350 C 287.810 133.207,288.441 133.961,289.218 134.377 L 289.917 134.750 343.083 134.794 C 400.243 134.841,397.553 134.882,398.620 133.946 C 399.867 132.851,399.826 133.245,399.830 122.367 C 399.834 111.852,399.862 112.207,398.939 111.192 C 398.025 110.188,399.503 110.258,377.167 110.167 L 356.750 110.083 356.667 102.250 C 356.570 93.191,356.611 93.393,354.717 92.436 C 353.919 92.033,325.025 92.026,324.250 92.429 M350.004 106.458 C 350.008 114.964,350.001 114.910,351.175 115.898 C 352.231 116.786,351.261 116.745,372.833 116.833 L 393.083 116.917 393.083 122.417 L 393.083 127.917 343.542 127.959 L 294.000 128.001 294.000 122.417 L 294.000 116.833 309.742 116.833 C 326.666 116.833,326.688 116.832,327.743 115.962 C 329.007 114.920,328.992 115.035,328.996 106.458 L 329.000 98.833 339.500 98.833 L 350.000 98.833 350.004 106.458 M2.083 113.428 C 1.387 113.790,0.729 114.449,0.424 115.091 C 0.065 115.848,0.035 131.863,0.391 132.714 C 0.760 133.594,1.840 134.443,2.859 134.653 C 3.505 134.786,42.018 134.825,142.833 134.793 L 281.917 134.750 282.623 134.346 C 283.011 134.123,283.536 133.642,283.789 133.277 L 284.250 132.612 284.250 123.919 L 284.250 115.226 283.803 114.550 C 283.533 114.142,283.065 113.733,282.625 113.520 L 281.895 113.167 142.239 113.168 C 16.152 113.169,2.535 113.194,2.083 113.428 M277.667 123.917 L 277.667 128.000 142.292 127.958 L 6.917 127.917 6.872 124.087 C 6.847 121.981,6.863 120.162,6.908 120.045 C 6.974 119.874,32.983 119.833,142.328 119.833 L 277.667 119.833 277.667 123.917 " stroke="none" fill="#ffffff" fill-rule="evenodd"></path><path id="path2" d="" stroke="none" fill="#080404" fill-rule="evenodd"></path><path id="path3" d="" stroke="none" fill="#080404" fill-rule="evenodd"></path><path id="path4" d="" stroke="none" fill="#080404" fill-rule="evenodd"></path></g></svg>