<?xml version="1.0" standalone="no"?>
<!DOCTYPE svg PUBLIC "-//W3C//DTD SVG 20010904//EN"
 "http://www.w3.org/TR/2001/REC-SVG-20010904/DTD/svg10.dtd">
<svg version="1.0" xmlns="http://www.w3.org/2000/svg"
 width="228.000000pt" height="332.000000pt" viewBox="0 0 228.000000 332.000000"
 preserveAspectRatio="xMidYMid meet">

<g transform="translate(0.000000,332.000000) scale(0.100000,-0.100000)"
fill="#8dd0ff" stroke="none">
<path d="M347 2992 c-180 -180 -327 -332 -327 -337 0 -5 102 -112 227 -237
l228 -228 -230 -230 -230 -230 155 -155 c85 -85 162 -155 170 -155 8 0 -55 70
-140 155 l-155 155 230 230 230 230 -233 232 -232 233 317 317 318 318 232
-232 233 -233 233 233 232 232 315 -315 315 -315 -228 -228 c-125 -125 -227
-232 -227 -237 0 -5 102 -112 227 -237 l228 -228 -160 -160 c-88 -88 -153
-160 -145 -160 8 0 87 72 175 160 l160 160 -228 228 c-125 125 -227 232 -227
237 0 5 102 112 227 237 l228 228 -330 330 -330 330 -232 -232 -233 -233 -233
233 -232 232 -328 -328z"/>
<path d="M372 2957 l-302 -302 230 -230 230 -230 -230 -230 -230 -230 152
-152 153 -153 135 20 c164 23 348 40 453 40 l78 0 50 47 50 46 47 -46 c43 -42
52 -47 93 -47 78 0 358 -29 488 -51 l123 -21 154 153 c85 85 154 158 154 164
0 6 -101 111 -225 235 l-225 225 230 230 230 230 -305 305 -305 305 -230 -230
-230 -230 -228 228 c-125 125 -229 227 -232 227 -3 0 -141 -136 -308 -303z
m325 -198 c120 -42 284 -128 389 -202 121 -86 274 -224 274 -247 0 -38 -35
-26 -100 33 -132 120 -272 217 -422 293 -72 36 -190 84 -208 84 -23 0 80 -235
154 -349 44 -69 45 -73 30 -96 -9 -14 -20 -22 -25 -20 -15 10 -109 172 -149
258 -50 106 -94 241 -87 261 9 23 45 20 144 -15z m1027 15 c8 -21 -45 -176
-99 -290 -90 -187 -326 -494 -380 -494 -13 0 -27 5 -30 10 -3 6 26 46 66 90
97 106 168 203 236 318 54 92 147 301 138 310 -14 14 -263 -100 -375 -171 -54
-35 -77 -36 -95 -7 -14 23 277 181 420 229 74 24 111 26 119 5z m-642 -341
c17 -15 14 -20 -62 -91 -151 -140 -304 -351 -370 -512 -37 -90 -47 -140 -30
-150 24 -15 152 32 268 96 52 29 61 38 51 50 -22 27 8 45 70 42 49 -3 56 -6
59 -25 2 -12 -6 -40 -18 -62 -20 -41 -46 -53 -56 -27 -4 10 -24 3 -81 -30
-103 -58 -196 -94 -264 -101 -52 -5 -57 -4 -78 23 -19 24 -22 37 -17 73 14
100 106 284 219 433 62 84 265 298 282 298 4 0 17 -7 27 -17z m-45 -380 c65
-65 161 -148 213 -186 152 -108 374 -209 411 -187 21 13 -1 85 -66 218 -52
105 -57 112 -80 106 -27 -7 -30 -3 -39 62 -4 26 -1 47 8 59 13 18 15 18 59 1
59 -22 78 -43 55 -60 -15 -11 -12 -23 41 -127 32 -63 66 -145 76 -183 17 -61
17 -71 4 -95 -21 -38 -58 -47 -127 -33 -78 16 -258 108 -364 184 -99 72 -250
208 -303 273 -32 39 -35 46 -23 64 7 12 14 21 14 21 1 0 55 -53 121 -117z"/>
<path d="M1100 1525 c-29 -31 -18 -46 13 -17 22 20 22 20 46 1 36 -30 48 -22
16 11 -35 36 -45 37 -75 5z"/>
<path d="M785 1460 c-285 -25 -755 -113 -755 -141 0 -8 109 -321 113 -326 2
-1 19 2 38 7 19 6 88 22 154 36 531 112 1132 108 1650 -11 82 -19 152 -32 156
-27 9 10 110 304 106 308 -8 9 -292 77 -410 98 -236 44 -388 57 -677 61 -151
2 -320 0 -375 -5z m312 -52 c26 -25 30 -69 8 -88 -14 -11 -13 -14 5 -27 28
-20 27 -79 -2 -110 -19 -20 -31 -23 -95 -23 l-73 0 0 135 0 135 67 0 c55 0 71
-4 90 -22z m256 -2 c68 -63 49 -216 -31 -247 -36 -14 -90 -5 -117 21 -43 41
-51 133 -16 197 30 57 117 72 164 29z m-554 4 c29 -15 46 -69 46 -147 0 -86
-18 -111 -83 -120 -36 -5 -45 -2 -70 24 -50 50 -56 190 -9 233 23 22 85 27
116 10z m760 -37 c44 -170 58 -234 50 -239 -15 -9 -39 16 -39 40 0 33 -12 42
-61 49 l-46 6 -16 -39 c-9 -23 -22 -40 -31 -40 -22 0 -20 8 15 87 17 37 42 92
54 121 30 66 59 72 74 15z m-982 -5 c31 -35 35 -65 9 -72 -37 -10 -46 -7 -56
20 -14 35 -30 21 -29 -24 2 -88 49 -183 49 -99 0 31 4 36 31 42 38 8 43 3 43
-41 0 -47 -30 -75 -87 -81 -36 -4 -49 -1 -65 15 -26 26 -44 90 -46 160 -1 47
2 57 27 78 37 32 96 33 124 2z m1189 11 c38 -6 69 -18 80 -30 23 -26 20 -76
-6 -104 -14 -15 -18 -25 -11 -30 6 -3 11 -32 11 -65 0 -53 -2 -58 -20 -53 -17
5 -20 14 -20 59 0 53 0 53 -37 63 -57 16 -62 14 -68 -26 -11 -61 -16 -73 -31
-73 -18 0 -18 10 1 129 21 126 24 141 32 141 3 0 35 -5 69 -11z m-1402 -45 c8
-32 10 -30 -34 -41 -25 -7 -36 -15 -38 -32 -3 -18 0 -22 15 -17 65 19 70 18
75 -9 5 -21 1 -28 -19 -36 -13 -5 -31 -9 -39 -9 -10 0 -14 -8 -12 -22 3 -21 8
-23 50 -20 40 3 47 1 53 -18 4 -12 3 -26 -2 -30 -9 -8 -146 -40 -151 -35 -4 4
-62 243 -62 255 0 6 107 34 146 39 7 0 15 -11 18 -25z m1660 -8 c51 -15 79
-52 78 -105 -1 -81 -35 -139 -90 -156 -31 -9 -132 13 -132 30 0 13 33 179 46
229 7 28 7 28 98 2z"/>
<path d="M997 1393 c-26 -4 -27 -7 -21 -41 4 -20 8 -39 10 -41 2 -2 23 0 46 5
37 8 43 13 46 36 3 22 -2 30 -23 38 -14 5 -27 9 -28 9 -1 -1 -15 -4 -30 -6z"/>
<path d="M980 1235 l0 -45 44 0 c43 0 76 18 76 41 0 34 -22 49 -70 49 l-50 0
0 -45z"/>
<path d="M1243 1385 c-46 -32 -55 -143 -15 -177 61 -53 132 -6 132 87 0 85
-60 130 -117 90z"/>
<path d="M730 1306 c0 -70 14 -121 30 -111 13 8 13 131 0 156 -19 35 -30 19
-30 -45z"/>
<path d="M1505 1324 c-11 -27 -21 -52 -23 -55 -2 -4 13 -9 33 -11 39 -5 40 -3
22 66 l-13 50 -19 -50z"/>
<path d="M1716 1328 c-14 -53 -8 -66 32 -71 43 -5 82 14 82 42 0 25 -18 38
-66 46 -37 6 -42 4 -48 -17z"/>
<path d="M1956 1291 c-2 -9 -12 -51 -21 -95 -19 -88 -16 -96 43 -96 46 0 79
35 87 94 9 60 -9 90 -64 103 -34 9 -41 8 -45 -6z"/>
<path d="M920 1089 c-174 -9 -359 -32 -535 -66 -71 -13 -131 -26 -133 -27 -2
-3 67 -226 74 -237 2 -4 45 4 96 17 51 13 99 24 108 24 11 0 22 -27 40 -101
24 -100 25 -101 52 -97 l28 5 0 -194 0 -193 495 0 495 0 0 196 0 196 25 -6
c26 -7 28 -4 56 127 7 32 16 60 20 63 5 2 51 -6 104 -20 52 -13 97 -21 99 -17
6 10 76 235 73 237 -7 6 -281 56 -382 69 -110 14 -470 36 -540 33 -16 0 -95
-4 -175 -9z m140 -44 c21 -26 25 -101 6 -130 -21 -32 -59 -33 -80 -3 -21 30
-21 106 1 130 20 22 56 23 73 3z m140 -60 c0 -69 -2 -76 -22 -84 -35 -13 -67
5 -68 37 0 17 29 15 36 -3 12 -31 24 -1 24 61 0 50 3 64 15 64 12 0 15 -15 15
-75z m123 65 c9 0 17 -7 17 -15 0 -9 -9 -15 -25 -15 -16 0 -25 -6 -25 -15 0
-9 9 -15 25 -15 16 0 25 -6 25 -15 0 -10 -10 -15 -30 -15 -23 0 -30 -4 -30
-20 0 -16 7 -20 30 -20 20 0 30 -5 30 -15 0 -10 -10 -15 -34 -15 -59 0 -61 4
-58 78 4 87 7 96 35 88 12 -3 30 -6 40 -6z m-422 -10 c14 -8 19 -20 18 -48 -1
-20 3 -52 9 -70 10 -31 10 -33 -11 -30 -13 2 -23 12 -27 27 -9 40 -30 38 -30
-3 0 -25 -5 -36 -15 -36 -14 0 -20 23 -28 112 -4 46 -4 47 27 51 17 2 32 5 34
5 2 1 12 -3 23 -8z m567 -6 c25 -17 30 -54 7 -54 -8 0 -19 9 -26 21 -6 12 -14
17 -19 13 -12 -14 -19 -79 -10 -94 9 -15 30 -5 30 15 0 9 6 12 15 9 34 -13 9
-64 -31 -64 -41 0 -57 27 -52 88 7 75 38 100 86 66z m-699 -18 c19 -23 9 -70
-16 -81 -16 -7 -23 -18 -23 -37 0 -25 -15 -46 -26 -35 -3 3 -10 37 -16 77 -9
59 -8 74 3 81 22 14 65 11 78 -5z m830 8 c35 -7 41 -23 12 -31 -12 -3 -22 -17
-25 -34 -3 -16 -9 -42 -12 -59 -3 -18 -12 -30 -21 -30 -13 0 -14 10 -8 65 6
56 4 65 -9 65 -9 0 -16 7 -16 15 0 16 27 19 79 9z m140 -46 c2 -6 7 -5 12 3 6
11 9 10 15 -4 11 -29 -3 -50 -25 -38 -10 6 -22 7 -26 3 -4 -4 -5 3 -2 16 3 12
1 22 -4 22 -5 0 -9 -7 -9 -15 0 -8 -4 -15 -10 -15 -5 0 -10 12 -10 26 0 24 3
25 28 19 15 -3 29 -11 31 -17z m-264 -128 c39 -5 109 -17 156 -26 l86 -16 -19
-86 c-10 -47 -21 -88 -23 -90 -2 -2 -46 3 -97 12 -51 9 -171 22 -266 28 -199
13 -428 1 -596 -32 -55 -11 -102 -18 -104 -16 -2 3 -14 45 -27 95 l-23 90 47
10 c52 11 244 39 311 45 80 7 483 -3 555 -14z m-655 -285 c0 -45 0 -45 35 -45
19 0 35 -4 35 -10 0 -5 -22 -10 -50 -10 l-50 0 0 55 c0 42 3 55 15 55 11 0 15
-12 15 -45z m220 35 c0 -5 -16 -10 -35 -10 -19 0 -35 -4 -35 -10 0 -5 16 -10
35 -10 19 0 35 -4 35 -10 0 -5 -16 -10 -35 -10 -24 0 -35 -5 -35 -15 0 -11 11
-15 40 -15 22 0 40 -4 40 -10 0 -6 -27 -10 -60 -10 l-60 0 0 55 0 55 55 0 c30
0 55 -4 55 -10z m92 -27 l14 -38 14 38 c9 25 20 37 33 37 10 0 17 -3 15 -8 -1
-4 -11 -28 -22 -55 -15 -36 -24 -47 -41 -47 -13 0 -25 8 -28 18 -3 9 -12 34
-21 55 -16 35 -15 37 3 37 12 0 23 -13 33 -37z m228 27 c0 -5 -18 -10 -40 -10
-22 0 -40 -4 -40 -10 0 -5 16 -10 35 -10 19 0 35 -4 35 -10 0 -5 -16 -10 -35
-10 -24 0 -35 -5 -35 -15 0 -11 11 -15 40 -15 22 0 40 -4 40 -10 0 -5 -25 -10
-55 -10 l-55 0 0 55 0 55 55 0 c30 0 55 -4 55 -10z m80 -35 c0 -45 0 -45 35
-45 19 0 35 -4 35 -10 0 -5 -22 -10 -50 -10 l-50 0 0 55 c0 42 3 55 15 55 11
0 15 -12 15 -45z m-463 -115 c42 -25 62 -85 43 -131 -39 -92 -201 -92 -240 0
-10 26 -10 40 -1 72 15 51 59 79 121 79 27 0 58 -8 77 -20z m198 -48 l50 -67
3 68 c3 64 4 67 27 67 25 0 25 0 25 -105 l0 -105 -28 0 c-23 0 -37 12 -78 65
l-49 66 -3 -66 c-3 -65 -3 -65 -32 -65 l-30 0 0 105 0 105 33 0 c28 -1 38 -10
82 -68z m345 48 c0 -18 -7 -20 -70 -20 -63 0 -70 -2 -70 -20 0 -18 7 -20 65
-20 58 0 65 -2 65 -20 0 -18 -7 -20 -65 -20 -63 0 -65 -1 -65 -25 0 -24 2 -25
70 -25 63 0 70 -2 70 -20 0 -19 -7 -20 -100 -20 l-100 0 0 105 0 105 100 0
c93 0 100 -1 100 -20z"/>
<path d="M1005 1011 c-9 -30 5 -91 22 -91 11 0 13 12 11 52 -3 53 -21 75 -33
39z"/>
<path d="M850 1000 c0 -11 7 -20 15 -20 8 0 15 9 15 20 0 11 -7 20 -15 20 -8
0 -15 -9 -15 -20z"/>
<path d="M720 980 c0 -13 5 -20 13 -17 6 2 12 10 12 17 0 7 -6 15 -12 18 -8 2
-13 -5 -13 -18z"/>
<path d="M995 763 c4 -32 9 -60 11 -62 7 -8 24 12 25 32 l0 22 9 -22 c5 -13
16 -23 24 -23 10 0 13 6 10 15 -3 8 -7 32 -7 52 -2 36 -4 38 -40 41 l-39 3 7
-58z m45 17 c0 -5 -2 -10 -4 -10 -3 0 -8 5 -11 10 -3 6 -1 10 4 10 6 0 11 -4
11 -10z"/>
<path d="M1100 765 c0 -42 3 -55 15 -55 12 0 15 13 15 55 0 42 -3 55 -15 55
-12 0 -15 -13 -15 -55z"/>
<path d="M1160 765 c0 -42 3 -55 15 -55 8 0 15 9 15 20 0 11 6 20 14 20 26 0
28 20 4 30 l-23 9 23 7 c34 10 26 24 -13 24 l-35 0 0 -55z"/>
<path d="M1255 769 c-5 -33 -3 -55 4 -62 15 -15 18 -10 25 56 6 47 5 57 -7 57
-11 0 -17 -16 -22 -51z"/>
<path d="M853 802 c-6 -4 -13 -21 -15 -37 l-5 -30 -8 33 c-4 17 -14 32 -21 32
-18 0 -18 -16 2 -72 12 -36 19 -45 34 -41 13 4 20 18 25 60 7 59 6 66 -12 55z"/>
<path d="M894 794 c3 -9 6 -33 6 -55 0 -38 1 -39 35 -39 23 0 35 5 35 14 0 8
-7 13 -16 12 -9 0 -19 5 -21 12 -3 6 2 12 11 12 9 0 16 5 16 10 0 6 -7 10 -15
10 -8 0 -15 5 -15 10 0 6 7 10 15 10 8 0 15 5 15 10 0 6 -16 10 -36 10 -29 0
-35 -3 -30 -16z"/>
<path d="M1316 779 c-13 -68 -9 -79 29 -79 40 0 46 14 13 25 l-23 8 23 4 c24
5 31 33 7 33 -8 0 -15 5 -15 10 0 6 9 10 20 10 11 0 20 5 20 10 0 6 -15 10
-34 10 -30 0 -34 -4 -40 -31z"/>
<path d="M1416 778 c-18 -89 -18 -88 19 -88 40 0 58 24 53 73 -3 28 -7 32 -35
35 -27 3 -33 -1 -37 -20z m35 -55 c-9 -15 -10 -13 -11 13 0 17 3 34 8 38 11
12 14 -32 3 -51z"/>
<path d="M868 423 c-9 -2 -22 -17 -28 -34 -25 -59 21 -109 84 -93 34 8 52 55
36 93 -14 35 -45 47 -92 34z"/>
<path d="M670 180 c-11 -11 -20 -29 -20 -40 0 -27 35 -60 63 -60 21 0 50 13
47 21 -1 2 2 17 5 32 14 56 -53 89 -95 47z m81 -14 c8 -17 8 -29 0 -42 -9 -17
-10 -16 -11 7 0 31 -25 45 -47 28 -24 -20 -12 -53 22 -60 28 -6 28 -7 4 -8
-32 -1 -49 16 -49 49 0 52 61 71 81 26z m-26 -25 c7 -12 -12 -24 -25 -16 -11
7 -4 25 10 25 5 0 11 -4 15 -9z"/>
<path d="M1592 173 c-15 -17 -29 -22 -42 -18 -18 6 -20 2 -20 -34 0 -30 4 -41
15 -41 10 0 15 10 15 29 0 20 6 30 20 34 17 4 20 0 20 -29 0 -46 30 -48 31 -1
1 17 3 44 5 60 4 33 -13 34 -44 0z"/>
<path d="M1057 177 c-10 -26 8 -92 26 -95 18 -4 24 13 7 23 -14 9 -12 43 2 47
9 3 8 9 -4 21 -20 20 -24 21 -31 4z"/>
<path d="M1210 180 c0 -5 5 -10 10 -10 6 0 10 5 10 10 0 6 -4 10 -10 10 -5 0
-10 -4 -10 -10z"/>
<path d="M787 164 c-15 -15 -6 -34 18 -40 14 -3 25 -11 25 -16 0 -6 -11 -7
-25 -4 -14 4 -25 2 -25 -4 0 -16 49 -23 65 -10 12 10 13 16 4 26 -6 8 -17 14
-25 14 -7 0 -16 5 -20 11 -5 9 1 10 20 5 21 -5 27 -3 24 6 -5 14 -50 23 -61
12z"/>
<path d="M977 163 c-15 -14 -6 -33 18 -39 14 -3 25 -11 25 -16 0 -6 -11 -7
-26 -4 -19 5 -25 3 -22 -6 3 -7 18 -13 34 -13 39 0 46 31 10 45 -34 13 -33 24
1 15 23 -5 25 -4 14 9 -14 16 -42 21 -54 9z"/>
<path d="M1268 163 c-13 -3 -18 -15 -18 -44 0 -47 17 -52 22 -6 2 20 8 32 18
32 10 0 16 -12 18 -32 4 -41 22 -44 22 -4 0 57 -12 67 -62 54z"/>
<path d="M1357 163 c-15 -14 -6 -33 18 -39 14 -3 25 -11 25 -16 0 -6 -11 -7
-26 -4 -19 5 -25 3 -22 -6 3 -7 18 -13 34 -13 39 0 46 31 10 45 -34 13 -33 24
1 15 23 -5 25 -4 14 9 -14 16 -42 21 -54 9z"/>
<path d="M870 133 c0 -44 13 -56 49 -48 27 6 31 11 31 41 0 40 -17 46 -22 7
-4 -39 -28 -42 -28 -4 0 21 -5 31 -15 31 -10 0 -15 -10 -15 -27z"/>
<path d="M1120 150 c0 -7 8 -9 19 -5 11 3 22 1 26 -5 3 -5 -2 -10 -13 -10 -23
0 -46 -25 -37 -40 3 -5 22 -10 41 -10 35 0 35 1 32 38 -3 34 -6 37 -35 40 -20
2 -33 -1 -33 -8z m50 -39 c0 -14 -18 -23 -31 -15 -8 4 -7 9 2 15 18 11 29 11
29 0z"/>
<path d="M1210 120 c0 -22 5 -40 10 -40 6 0 10 18 10 40 0 22 -4 40 -10 40 -5
0 -10 -18 -10 -40z"/>
<path d="M1440 126 c0 -41 9 -49 45 -40 21 5 25 12 25 40 0 19 -4 34 -10 34
-5 0 -10 -13 -10 -30 0 -20 -5 -30 -15 -30 -10 0 -15 10 -15 30 0 17 -4 30
-10 30 -5 0 -10 -15 -10 -34z"/>
</g>
</svg>
