<?xml version="1.0" standalone="no"?>
<!DOCTYPE svg PUBLIC "-//W3C//DTD SVG 20010904//EN"
 "http://www.w3.org/TR/2001/REC-SVG-20010904/DTD/svg10.dtd">
<svg version="1.0" xmlns="http://www.w3.org/2000/svg"
 width="900.000000pt" height="675.000000pt" viewBox="0 0 900.000000 675.000000"
 preserveAspectRatio="xMidYMid meet">

<g transform="translate(0.000000,675.000000) scale(0.100000,-0.100000)"
fill="#8dd0ff" stroke="none">
<path d="M2260 5783 c0 -21 5 -87 10 -147 10 -102 9 -112 -11 -162 -21 -49
-21 -60 -13 -186 5 -73 6 -176 2 -228 -3 -52 -8 -123 -10 -157 l-4 -63 118 0
118 0 0 28 c0 18 10 38 25 52 45 42 50 84 22 172 -17 50 -28 111 -32 180 -6
92 -4 107 14 143 12 21 21 56 21 77 0 37 1 38 28 31 44 -12 125 -8 156 9 26
14 34 13 88 -3 33 -11 83 -19 112 -19 40 0 62 -7 97 -28 82 -53 94 -74 113
-218 10 -71 24 -153 32 -181 17 -63 60 -115 112 -136 56 -23 227 -40 350 -35
91 3 116 8 167 31 33 16 74 42 92 59 l32 31 119 -13 120 -13 16 -33 c17 -37
24 -39 76 -23 19 6 78 14 130 18 105 9 170 32 246 86 l46 33 47 -29 c92 -58
186 -47 277 32 27 24 58 40 82 44 109 17 150 28 262 69 123 47 145 51 212 40
l37 -6 -81 -110 c-44 -60 -78 -111 -76 -113 3 -3 763 409 777 421 2 2 2 6 -1
9 -8 9 -828 322 -828 317 0 -2 50 -58 112 -123 134 -144 134 -149 -8 -153 -80
-3 -102 -8 -209 -51 -78 -31 -151 -52 -209 -61 -90 -14 -180 -50 -212 -85 -15
-17 -18 -16 -64 17 -27 19 -64 38 -84 41 -42 7 -114 -24 -211 -91 -37 -25 -79
-47 -94 -47 -56 -3 -107 3 -136 16 -30 13 -277 45 -352 45 -65 0 -111 -19
-158 -65 -24 -25 -57 -47 -72 -50 -16 -4 -36 -8 -45 -10 -18 -3 -239 13 -244
18 -2 1 -12 61 -23 132 -11 72 -25 145 -30 163 -28 95 -106 177 -237 252 -74
42 -84 45 -154 46 -41 0 -102 8 -135 17 -73 21 -80 21 -144 1 -50 -17 -54 -16
-208 15 -87 17 -164 31 -170 31 -8 0 -13 -14 -13 -37z"/>
<path d="M6915 5615 c-49 -7 -111 -14 -137 -14 l-48 -1 0 -120 0 -120 33 0
c32 0 177 16 229 25 22 3 30 -2 46 -28 11 -18 70 -86 132 -151 l112 -119 -6
-42 c-4 -23 -16 -66 -27 -94 -11 -29 -33 -110 -50 -179 -20 -86 -45 -156 -75
-218 -37 -75 -45 -99 -43 -140 1 -43 -10 -75 -91 -254 -99 -221 -126 -312
-111 -379 20 -92 93 -172 169 -187 25 -5 32 -12 32 -29 0 -31 -21 -128 -31
-139 -4 -4 -63 41 -131 100 -68 60 -131 115 -141 123 -22 18 -31 40 133 -339
73 -168 149 -345 170 -395 l38 -89 201 403 c111 222 201 405 199 407 -2 1 -24
-13 -48 -33 -25 -19 -70 -55 -100 -78 l-56 -43 4 62 c8 124 -37 205 -142 255
-61 30 -64 33 -57 59 5 15 57 135 117 267 86 191 108 250 110 290 1 28 13 77
27 110 14 33 37 110 52 170 14 61 40 149 56 198 24 68 30 106 31 175 1 48 -2
97 -6 110 -4 13 -68 89 -141 168 -89 98 -135 155 -139 176 -3 17 -23 48 -45
69 -38 38 -40 39 -107 38 -38 -1 -109 -7 -159 -14z"/>
<path d="M2127 4178 c-168 -178 -304 -324 -303 -326 2 -2 75 24 161 58 87 33
160 58 163 55 3 -3 -2 -49 -12 -102 -9 -54 -21 -152 -26 -218 -6 -91 -15 -138
-36 -195 -25 -67 -28 -87 -26 -183 2 -101 0 -111 -27 -165 -16 -31 -36 -91
-46 -132 -18 -83 -18 -83 -60 -135 -27 -35 -30 -45 -35 -149 -6 -100 -10 -119
-44 -194 -59 -131 -86 -219 -86 -284 0 -56 3 -62 50 -119 55 -66 59 -82 35
-169 -23 -82 -21 -212 4 -304 25 -90 71 -196 106 -241 27 -36 142 -87 235
-106 57 -11 519 -28 788 -29 l152 0 0 114 0 114 -82 6 c-46 3 -247 10 -448 15
-446 11 -447 12 -492 106 -16 35 -34 90 -40 124 -10 54 -9 72 12 156 34 142
17 242 -58 335 -23 28 -22 35 37 172 43 101 71 205 71 271 0 25 9 49 24 70 16
21 34 71 50 140 14 60 37 127 50 150 32 56 46 133 44 237 -1 69 3 101 25 169
18 55 29 117 33 175 7 118 24 256 33 256 3 0 37 -52 75 -116 38 -63 73 -117
77 -120 4 -2 6 10 3 28 -2 18 -18 161 -34 318 -45 416 -58 531 -62 536 -3 2
-142 -141 -311 -318z"/>
<path d="M3925 4348 c-88 -31 -127 -98 -126 -214 1 -126 41 -188 169 -263 83
-49 102 -79 102 -163 0 -84 -12 -100 -70 -96 -56 4 -70 27 -70 121 l0 68 -67
-3 -67 -3 2 -87 c3 -166 65 -237 205 -238 72 0 113 17 154 63 42 48 56 104 51
203 -6 123 -46 181 -176 259 -79 48 -105 88 -99 152 6 56 21 73 67 73 52 0 70
-23 70 -93 l0 -57 70 0 70 0 0 59 c0 67 -21 135 -53 170 -49 53 -156 76 -232
49z"/>
<path d="M5015 4341 c-48 -22 -79 -54 -100 -103 -12 -31 -15 -88 -15 -321 0
-294 3 -325 44 -380 71 -97 265 -88 334 16 l27 40 3 296 c4 318 0 348 -45 402
-55 65 -166 88 -248 50z m141 -135 c18 -14 19 -29 19 -289 0 -310 1 -307 -70
-307 -69 0 -70 2 -73 264 -4 248 1 307 24 331 19 19 74 19 100 1z"/>
<path d="M2880 3915 l0 -435 180 0 180 0 0 65 0 65 -110 0 -110 0 0 125 0 125
75 0 75 0 0 65 0 65 -75 0 -75 0 0 110 0 110 110 0 110 0 0 70 0 70 -180 0
-180 0 0 -435z"/>
<path d="M3327 4343 c-4 -3 -7 -199 -7 -435 l0 -428 70 0 70 0 2 173 3 172 75
6 c41 3 85 10 96 17 35 19 82 79 93 119 14 50 14 183 0 240 -15 58 -70 117
-124 132 -43 12 -267 15 -278 4z m257 -155 c11 -16 16 -46 16 -103 0 -105 -10
-119 -81 -120 l-54 0 -3 123 -3 122 55 0 c45 0 58 -4 70 -22z"/>
<path d="M4480 3915 l0 -435 70 0 70 0 0 190 0 190 75 0 75 0 0 65 0 65 -75 0
-75 0 0 110 0 110 110 0 110 0 0 70 0 70 -180 0 -180 0 0 -435z"/>
<path d="M5451 3928 c-46 -233 -86 -429 -89 -435 -3 -10 14 -13 67 -13 79 0
71 -8 88 90 l9 45 76 3 c87 3 78 12 95 -88 l9 -45 67 -3 c59 -3 67 -1 67 15 0
10 -38 205 -83 433 l-83 415 -70 3 -70 3 -83 -423z m183 -43 c12 -69 20 -127
18 -130 -9 -8 -102 -6 -102 3 0 12 40 234 47 262 8 30 7 33 37 -135z"/>
<path d="M5920 3916 l0 -436 65 0 65 0 2 208 3 207 54 -143 54 -143 40 3 40 3
51 140 51 140 3 -208 2 -207 70 0 70 0 0 436 0 435 -41 -3 -41 -3 -101 -232
c-55 -128 -104 -233 -108 -233 -4 0 -9 8 -12 18 -3 9 -47 114 -99 232 l-94
215 -37 3 -37 3 0 -435z"/>
<path d="M3914 3011 c-49 -22 -88 -70 -103 -126 -7 -24 -11 -143 -11 -300 0
-157 4 -276 11 -300 27 -97 106 -150 214 -143 123 8 186 82 189 223 3 107 4
105 -70 105 l-64 0 0 -73 c0 -91 -15 -117 -69 -117 -71 0 -71 2 -71 307 0 257
1 271 20 288 11 10 34 18 52 17 47 -1 68 -32 68 -98 l0 -54 65 0 65 0 1 48 c2
100 -14 154 -58 194 -54 49 -166 62 -239 29z"/>
<path d="M4863 3017 c-46 -17 -82 -52 -104 -100 -17 -38 -19 -69 -19 -333 l0
-290 26 -51 c20 -42 35 -57 77 -77 120 -60 261 -11 295 103 7 21 12 75 12 120
l0 82 -67 -3 -68 -3 -3 -80 c-2 -43 -8 -85 -14 -92 -15 -18 -83 -16 -102 3
-14 13 -16 54 -16 293 0 309 -1 303 65 303 52 0 64 -15 67 -85 l3 -62 69 -3
68 -3 -4 78 c-7 142 -63 205 -187 210 -36 1 -80 -3 -98 -10z"/>
<path d="M6189 3007 c-33 -18 -51 -37 -72 -78 -26 -49 -29 -61 -25 -134 7
-123 42 -177 160 -246 92 -54 113 -86 113 -171 0 -79 -14 -100 -69 -100 -56 0
-65 13 -68 105 l-3 82 -67 3 -68 3 0 -89 c0 -74 4 -96 25 -138 38 -75 81 -99
181 -99 69 0 86 3 117 25 22 15 48 46 62 74 21 42 25 64 25 135 -1 140 -37
204 -152 273 -97 57 -118 85 -118 157 0 31 5 62 12 69 17 17 93 15 108 -3 6
-8 14 -41 17 -75 l6 -60 63 0 64 0 0 64 c0 69 -13 117 -44 159 -49 67 -181 89
-267 44z"/>
<path d="M2890 2585 l0 -435 65 0 65 0 0 175 0 175 30 0 c38 0 38 -1 75 -197
l29 -153 68 0 c48 0 68 4 68 13 0 6 -16 92 -36 189 l-36 178 31 35 c42 48 54
102 49 220 -5 105 -17 142 -60 182 -45 43 -89 53 -223 53 l-125 0 0 -435z
m254 279 c12 -12 16 -37 16 -104 0 -109 -8 -120 -86 -120 l-54 0 0 120 0 120
54 0 c36 0 60 -5 70 -16z"/>
<path d="M3380 2585 l0 -435 180 0 180 0 0 70 0 70 -110 0 -110 0 0 120 0 120
75 0 75 0 0 65 0 65 -75 0 -75 0 0 110 0 110 110 0 110 0 0 70 0 70 -180 0
-180 0 0 -435z"/>
<path d="M4240 3016 c0 -3 36 -127 80 -275 l79 -269 3 -158 3 -159 68 -3 67
-3 0 148 0 147 81 271 c44 148 83 278 86 288 4 16 -2 18 -68 15 l-73 -3 -45
-148 c-24 -81 -46 -145 -48 -143 -3 2 -24 69 -47 148 l-42 143 -72 3 c-40 2
-72 1 -72 -2z"/>
<path d="M5230 2610 c0 -225 2 -421 6 -435 l6 -25 180 0 179 0 -3 68 -3 67
-112 3 -113 3 0 364 0 365 -70 0 -69 0 -1 -410z"/>
<path d="M5660 2585 l0 -435 180 0 180 0 0 70 0 70 -110 0 -110 0 0 120 0 120
75 0 75 0 0 65 0 65 -75 0 -75 0 0 110 0 110 110 0 110 0 0 70 0 70 -180 0
-180 0 0 -435z"/>
<path d="M7043 2393 c-18 -7 -17 -78 9 -510 12 -205 19 -375 16 -378 -2 -3
-67 -9 -144 -15 -333 -24 -2584 -63 -2584 -45 0 3 45 60 99 128 55 67 98 123
97 125 -2 1 -106 -48 -232 -109 -126 -61 -307 -149 -403 -195 -96 -47 -170
-88 -165 -92 12 -11 806 -364 809 -360 2 2 -46 59 -105 128 l-108 125 417 6
c1370 21 2029 38 2306 59 66 5 150 10 188 10 l67 0 0 128 c0 70 -7 244 -15
387 -8 143 -17 312 -20 375 -3 63 -8 143 -11 178 l-6 62 -101 -1 c-56 0 -108
-3 -114 -6z"/>
</g>
</svg>
