<?xml version="1.0" standalone="no"?>
<!DOCTYPE svg PUBLIC "-//W3C//DTD SVG 20010904//EN"
 "http://www.w3.org/TR/2001/REC-SVG-20010904/DTD/svg10.dtd">
<svg version="1.0" xmlns="http://www.w3.org/2000/svg"
 width="600.000000pt" height="413.000000pt" viewBox="0 0 600.000000 413.000000"
 preserveAspectRatio="xMidYMid meet">

<g transform="translate(0.000000,413.000000) scale(0.100000,-0.100000)"
fill="#8dd0ff" stroke="none">
<path d="M4320 4119 c-606 -61 -1055 -412 -1186 -927 -41 -161 -44 -227 -44
-954 l0 -698 120 0 120 0 0 688 c0 401 5 716 10 757 69 482 393 792 920 882
135 23 442 22 575 -1 289 -52 493 -153 658 -325 115 -121 185 -251 229 -429
30 -120 33 -435 4 -557 -92 -397 -373 -650 -820 -736 -113 -22 -326 -39 -498
-39 l-118 0 0 -120 0 -120 148 0 c192 0 387 15 518 41 479 92 837 380 969 778
88 269 92 622 9 898 -110 368 -396 651 -792 783 -231 77 -544 107 -822 79z"/>
<path d="M4365 3719 c-267 -28 -488 -122 -639 -274 -95 -94 -167 -221 -209
-367 -20 -71 -21 -96 -24 -805 l-4 -733 120 0 120 0 3 713 3 712 27 81 c54
157 155 272 304 345 156 76 368 107 595 89 246 -20 411 -81 524 -194 114 -115
165 -256 165 -462 0 -350 -179 -553 -548 -620 -42 -7 -175 -17 -294 -20 l-218
-7 0 -120 0 -120 228 6 c325 8 480 39 667 135 72 37 108 64 181 137 141 140
204 283 224 506 16 189 -12 370 -79 515 -133 283 -405 446 -806 484 -124 11
-223 11 -340 -1z"/>
<path d="M4389 3320 c-156 -20 -267 -63 -349 -137 -60 -54 -93 -103 -123 -182
-21 -55 -22 -69 -25 -758 l-3 -703 121 0 120 0 0 655 c0 450 4 671 11 707 29
135 208 200 499 183 224 -13 294 -62 307 -214 12 -141 -20 -210 -117 -255 -41
-19 -67 -21 -292 -24 l-248 -4 0 -124 0 -124 133 0 c371 1 550 43 657 156 79
83 110 174 110 321 0 155 -33 258 -111 347 -52 58 -174 119 -284 141 -94 19
-313 27 -406 15z"/>
<path d="M1272 2579 c-529 -40 -947 -292 -1139 -684 -92 -188 -127 -357 -127
-610 0 -199 21 -339 71 -478 163 -456 576 -739 1162 -797 57 -5 267 -10 467
-10 l364 0 0 119 0 119 -412 5 c-323 3 -434 8 -508 21 -281 49 -479 143 -640
306 -182 183 -262 402 -262 715 0 405 154 699 462 881 209 124 427 174 750
174 184 0 309 -16 445 -55 367 -107 608 -330 710 -658 l27 -87 118 0 c64 0
119 2 122 5 9 9 -39 184 -72 265 -64 155 -146 275 -267 391 -231 221 -541 347
-928 379 -141 11 -190 11 -343 -1z"/>
<path d="M1325 2179 c-495 -31 -817 -271 -901 -669 -27 -125 -25 -355 4 -471
83 -336 315 -535 718 -615 62 -13 172 -17 502 -21 l422 -5 0 121 0 121 -344 0
c-189 0 -389 5 -445 10 -331 34 -519 159 -599 398 -23 69 -26 93 -26 232 -1
135 2 165 22 230 68 217 206 336 465 401 107 27 378 37 510 19 262 -35 446
-147 540 -327 l32 -63 123 0 c140 0 135 -5 97 96 -142 378 -556 579 -1120 543z"/>
<path d="M1235 1756 c-152 -25 -250 -71 -325 -153 -109 -119 -138 -343 -69
-527 30 -82 110 -164 196 -204 135 -61 168 -64 706 -69 l487 -5 0 -399 0 -399
125 0 125 0 0 520 0 520 -537 0 c-555 0 -741 8 -790 33 -71 38 -103 103 -103
215 0 66 4 87 28 133 23 47 35 58 87 84 l60 30 408 3 c224 2 407 7 407 12 0
21 -103 111 -160 140 -109 55 -194 72 -390 76 -114 2 -203 -1 -255 -10z"/>
<path d="M1257 1363 c-4 -3 -7 -53 -7 -110 l0 -103 695 0 695 0 0 -575 0 -575
125 0 125 0 -2 682 -3 683 -811 3 c-446 1 -814 -1 -817 -5z"/>
<path d="M3090 685 l0 -685 100 0 100 0 0 200 0 200 100 0 100 0 0 105 0 105
-100 0 -100 0 0 275 0 275 130 0 130 0 0 105 0 105 -230 0 -230 0 0 -685z"/>
<path d="M3877 1360 c-93 -24 -167 -86 -197 -167 -19 -51 -20 -79 -20 -508 0
-433 1 -457 20 -509 23 -61 84 -124 147 -152 59 -26 175 -24 241 5 67 30 127
97 147 164 22 75 22 909 0 984 -39 131 -199 218 -338 183z m121 -216 l22 -15
0 -444 0 -444 -22 -15 c-33 -23 -91 -20 -114 5 -18 20 -19 42 -19 456 l0 435
24 19 c28 23 78 25 109 3z"/>
<path d="M4575 1355 c-27 -8 -53 -14 -56 -15 -17 -1 -103 -88 -122 -124 -22
-41 -22 -44 -25 -628 l-3 -588 101 0 100 0 0 200 0 200 80 0 80 0 2 -198 3
-197 103 -3 103 -3 -3 583 c-3 534 -5 586 -21 621 -59 125 -207 191 -342 152z
m133 -211 c22 -15 22 -18 22 -275 l0 -259 -80 0 -81 0 3 254 c3 233 5 256 22
275 23 25 81 28 114 5z"/>
<path d="M5268 1357 c-102 -29 -176 -108 -198 -211 -7 -33 -9 -241 -8 -596 l3
-545 103 -3 102 -3 0 561 c0 547 0 560 20 580 20 20 83 28 106 12 32 -21 34
-51 34 -601 l0 -551 100 0 100 0 2 559 c3 533 4 560 22 580 26 28 88 29 116 1
20 -20 20 -33 20 -580 l0 -560 105 0 106 0 -3 583 -3 582 -27 50 c-54 102
-135 149 -258 149 -61 0 -84 -5 -126 -26 l-52 -26 -48 24 c-61 30 -153 38
-216 21z"/>
</g>
</svg>
